Coordinates
version=1
nRows=16
nColumns=40
inDegrees=yes

Units are S.I. units (second, meters, Newtons, ...)
Angles are in degrees.

endheader
time	pelvis_tilt	pelvis_list	pelvis_rotation	pelvis_tx	pelvis_ty	pelvis_tz	hip_flexion_r	hip_adduction_r	hip_rotation_r	knee_angle_r	knee_angle_r_beta	ankle_angle_r	subtalar_angle_r	mtp_angle_r	hip_flexion_l	hip_adduction_l	hip_rotation_l	knee_angle_l	knee_angle_l_beta	ankle_angle_l	subtalar_angle_l	mtp_angle_l	lumbar_extension	lumbar_bending	lumbar_rotation	arm_flex_r	arm_add_r	arm_rot_r	elbow_flex_r	pro_sup_r	wrist_flex_r	wrist_dev_r	arm_flex_l	arm_add_l	arm_rot_l	elbow_flex_l	pro_sup_l	wrist_flex_l	wrist_dev_l
     34.34042857	     -1.04804515	     -6.42814757	      4.28582116	      0.89264094	      0.90958890	      0.54738430	     13.94078163	      8.53890948	     -7.73012390	     30.27692516	     30.27692516	     18.70275040	    -13.13533236	      0.19088524	     26.71215450	    -16.20565994	      6.14171547	     67.11027126	     67.11027126	      8.93773978	    -19.33404228	     16.21423034	     -8.97771090	      4.41496185	      0.40972798	     21.51422517	    -14.15434874	     -1.33308242	     33.17844493	     46.22445880	      0.00000000	      0.00000000	      1.23904814	     -8.66816788	      1.02554753	     30.17189505	     46.29667360	      0.00000000	      0.00000000
     34.36335714	     -0.94069216	     -6.37501167	      4.95641825	      0.89106352	      0.90797337	      0.54837334	     14.08889064	      8.65472900	     -7.70316368	     31.08014230	     31.08014230	     19.40100391	    -14.14011189	      1.27051003	     28.42851804	    -15.99745299	      6.52209678	     66.94463086	     66.94463086	     11.25241685	    -19.44266696	     20.59016941	     -9.24834761	      4.33780730	      0.70427642	     24.07903620	    -14.83203414	     -1.68441165	     36.22948610	     46.12383589	      0.00000000	      0.00000000	      0.25012365	     -8.18693351	      2.62275488	     26.40611721	     46.01242332	      0.00000000	      0.00000000
     34.38628571	     -0.95921881	     -6.25301963	      5.66287204	      0.88951950	      0.90693501	      0.54884969	     14.18941173	      8.61441165	     -7.83904517	     31.57133387	     31.57133387	     19.95383390	    -14.83715094	      2.13386029	     29.85415989	    -15.69645687	      6.62015986	     65.59940699	     65.59940699	     12.74696095	    -19.51295055	     21.70050423	     -9.38910622	      4.22943999	      0.82301221	     26.59487173	    -15.48444514	     -2.14903999	     39.75463393	     46.00494738	      0.00000000	      0.00000000	     -1.27853508	     -7.93667370	      4.51866509	     24.27645715	     45.63053223	      0.00000000	      0.00000000
     34.40921429	     -1.03082359	     -6.01340500	      6.41351010	      0.88797959	      0.90677778	      0.54868468	     14.09200369	      8.36934184	     -8.11601998	     31.61958343	     31.61958343	     20.12677921	    -15.34619497	      2.26400105	     30.89085251	    -15.08019760	      6.65353219	     63.18541452	     63.18541452	     13.89782120	    -19.52892125	     21.61488762	     -9.47266142	      4.04205545	      0.49400777	     29.82474269	    -15.75634085	     -2.47805605	     41.87285781	     45.95907840	      0.00000000	      0.00000000	     -3.16784945	     -7.67530341	      4.97067028	     23.12769791	     45.51216249	      0.00000000	      0.00000000
     34.43214286	     -1.34170431	     -5.74706229	      7.15114394	      0.88630985	      0.90712604	      0.54800630	     14.03964303	      8.01788328	     -8.49190657	     31.28304977	     31.28304977	     20.16167209	    -15.61161252	      2.40870009	     31.84272613	    -14.16427828	      6.82741794	     59.96380647	     59.96380647	     14.85097562	    -19.50224242	     21.53550624	     -9.25822404	      3.83970633	      0.91043641	     32.76107144	    -16.78694446	     -2.82605376	     43.31359299	     45.94095243	      0.00000000	      0.00000000	     -4.64650051	     -7.37163956	      5.15561256	     22.46439248	     45.44885529	      0.00000000	      0.00000000
     34.45507143	     -1.49623934	     -5.29921421	      7.91803453	      0.88478870	      0.90848800	      0.54671921	     13.61090766	      7.42476273	     -8.97094986	     30.69172744	     30.69172744	     20.21484834	    -15.52070732	      2.59402559	     32.08804445	    -12.88024511	      7.12663325	     55.86800419	     55.86800419	     15.36495131	    -19.42371293	     20.74506822	     -9.30860640	      3.56524737	      0.03395269	     35.82810145	    -16.47358610	     -3.20641672	     46.73319251	     45.84521764	      0.00000000	      0.00000000	     -6.48111030	     -7.17247992	      5.88327633	     21.34035956	     45.26488534	      0.00000000	      0.00000000
     34.47800000	     -1.83473342	     -4.85739017	      8.62268554	      0.88318441	      0.91019397	      0.54518593	     13.23384492	      6.79350458	     -9.50001214	     29.83170031	     29.83170031	     20.03086792	    -15.30352506	      2.53441958	     32.07382858	    -11.57838074	      7.49050589	     50.97775246	     50.97775246	     14.26989885	    -19.25937779	     16.90887759	     -9.19031273	      3.25759277	      1.03690430	     36.97920508	    -17.97695164	     -4.48469058	     52.27687622	     45.63706597	      0.00000000	      0.00000000	     -8.02786457	     -8.68183875	     18.53669633	     22.84367711	     42.88536270	      0.00000000	      0.00000000
     34.50092857	     -2.18873855	     -4.31875960	      9.26482472	      0.88163321	      0.91233442	      0.54320210	     12.73012824	      6.05042381	     -9.97713306	     28.78512100	     28.78512100	     19.85837659	    -14.98638528	      2.68960702	     31.81093038	    -10.01565561	      8.26350801	     45.94805499	     45.94805499	     14.06860680	    -18.87404125	     16.64644547	     -9.00140478	      2.85620785	      0.99044195	     39.83898087	    -18.35619074	     -4.75191168	     54.09246906	     45.59839607	      0.00000000	      0.00000000	     -9.31528213	     -8.50572207	     18.69119266	     22.42547423	     42.85782044	      0.00000000	      0.00000000
     34.52385714	     -2.52699214	     -3.93727936	      9.85062931	      0.88027986	      0.91440693	      0.54112054	     12.09323898	      5.44476638	    -10.66352257	     27.50915288	     27.50915288	     19.40045162	    -14.36885292	      1.87829098	     31.17150959	     -8.92812545	      8.81760261	     40.36894207	     40.36894207	     11.49063364	    -18.22194519	     10.29388704	     -8.88590797	      2.63052658	      1.18272598	     41.88064406	    -19.00706447	     -5.25826978	     58.11047664	     45.48548599	      0.00000000	      0.00000000	    -10.50459390	     -8.52096699	     19.46692888	     22.71176623	     42.86162232	      0.00000000	      0.00000000
     34.54678571	     -2.82923883	     -3.51842387	     10.31701652	      0.87902953	      0.91654029	      0.53891220	     11.41737987	      4.85786367	    -11.12707722	     26.28330673	     26.28330673	     19.18725571	    -13.81657207	      1.98316409	     30.56936064	     -7.88373591	      9.43421730	     35.47390179	     35.47390179	     11.33483381	    -16.37898302	     10.32062980	     -8.73291494	      2.34690882	      1.18270347	     44.58927594	    -19.16985321	     -5.44502111	     59.79838334	     45.44806212	      0.00000000	      0.00000000	    -11.49061319	     -8.35234726	     19.69581209	     22.37079484	     42.82885025	      0.00000000	      0.00000000
     34.56971429	     -3.10670660	     -3.20229557	     10.71088128	      0.87799824	      0.91841506	      0.53665429	     10.69109809	      4.38564805	    -11.63380048	     25.02085438	     25.02085438	     18.99515333	    -13.09363131	      1.94777303	     29.97946303	     -7.20745051	      9.64048916	     31.01449262	     31.01449262	     11.18931620	    -13.68880630	     10.08647835	     -8.57402958	      2.18362824	      1.18108153	     47.08007201	    -19.20593152	     -5.57909398	     61.72508650	     45.39959248	      0.00000000	      0.00000000	    -12.34846531	     -8.22459017	     19.91165194	     22.16338792	     42.79964786	      0.00000000	      0.00000000
     34.59264286	     -3.34522668	     -3.04019787	     11.01822670	      0.87717620	      0.91980937	      0.53442817	      9.93146219	      4.09009224	    -12.19865640	     23.71849582	     23.71849582	     18.48148953	    -12.39079493	      0.79520259	     29.42319705	     -6.88543916	      9.40578115	     27.03400821	     27.03400821	     10.41770829	    -10.78635268	      7.99777108	     -8.46409203	      2.17609112	      1.62942558	     48.71316592	    -19.69752559	     -5.81636385	     65.25281258	     45.30666376	      0.00000000	      0.00000000	    -12.94979310	     -8.31988815	     20.92317473	     22.45647276	     42.77458509	      0.00000000	      0.00000000
     34.61557143	     -3.53924128	     -2.85915812	     11.24033780	      0.87652839	      0.92098989	      0.53214674	      9.20669846	      3.81116355	    -12.57089130	     22.62708258	     22.62708258	     18.39294370	    -11.70720762	      0.79275164	     28.94183485	     -6.58008334	      8.98616808	     23.87282946	     23.87282946	     10.51244683	     -7.91963053	      8.26112184	     -8.35257557	      2.10193383	      1.59376681	     50.95839773	    -19.45822717	     -5.82493540	     66.72101655	     45.27019154	      0.00000000	      0.00000000	    -13.48938817	     -8.20735584	     21.18129717	     22.20777547	     42.75328705	      0.00000000	      0.00000000
     34.63850000	     -3.79229804	     -2.74757431	     11.39247078	      0.87596797	      0.92164337	      0.52983041	      8.68550403	      3.58420175	    -12.85331913	     21.78812635	     21.78812635	     18.36556984	    -11.15843610	      0.75804085	     28.63100285	     -6.35302942	      8.40067512	     21.37443062	     21.37443062	     10.48215990	     -5.52089172	      8.45617763	     -8.15636723	      2.07353877	      1.68205347	     52.89839873	    -19.23573117	     -5.79573480	     68.06225397	     45.23461235	      0.00000000	      0.00000000	    -13.85338454	     -8.13129796	     21.33853366	     22.05102115	     42.74056474	      0.00000000	      0.00000000
     34.66142857	     -3.93620002	     -2.69306704	     11.50684248	      0.87575888	      0.92204491	      0.52750308	      8.04230268	      3.43575694	    -13.19508396	     20.96648101	     20.96648101	     18.41048496	    -10.47251158	      0.63126108	     28.35771841	     -6.26609279	      7.47875941	     19.63811334	     19.63811334	     10.43737825	     -3.20616357	      8.28953959	     -8.05816763	      2.06342540	      1.62574692	     54.62622718	    -18.86451657	     -5.69563422	     69.62545645	     45.18893826	      0.00000000	      0.00000000	    -14.13638284	     -8.08502197	     21.51312469	     21.88500700	     42.73096472	      0.00000000	      0.00000000
     34.68435714	     -4.09719323	     -2.70508926	     11.57015642	      0.87570182	      0.92201870	      0.52510300	      7.52523721	      3.33685635	    -13.48026819	     20.34315351	     20.34315351	     18.50050868	     -9.84610520	      0.45243365	     28.22044685	     -6.25227776	      6.44205616	     18.52403771	     18.52403771	     10.17111019	     -1.33847783	      7.75607821	     -7.93214158	      2.11729919	      1.59726211	     56.09234304	    -18.51432983	     -5.57342979	     71.16193859	     45.14318570	      0.00000000	      0.00000000	    -14.24037642	     -8.06373162	     21.68262278	     21.75514255	     42.72846437	      0.00000000	      0.00000000
